<svg xmlns="http://www.w3.org/2000/svg" viewBox="0 0 180 44" font-family="Inter, system-ui, -apple-system, sans-serif">
  <defs>
    <linearGradient id="lsg" x1="22" y1="13" x2="22" y2="23" gradientUnits="userSpaceOnUse">
      <stop offset="0%" stop-color="#93c5fd"></stop>
      <stop offset="100%" stop-color="#2563eb"></stop>
    </linearGradient>
  </defs>





  <path d="M 16.5 23 L 16.5 20.25 C 16.5 17.19 18.94 14.75 22 14.75 C 25.06 14.75 27.5 17.19 27.5 20.25 L 27.5 23" fill="none" stroke="#3b82f6" stroke-width="5.5" stroke-linecap="round" opacity="0.13"></path>

  <path d="M 16.5 23 L 16.5 20.25 C 16.5 17.19 18.94 14.75 22 14.75 C 25.06 14.75 27.5 17.19 27.5 20.25 L 27.5 23" fill="none" stroke="url(#lsg)" stroke-width="3.25" stroke-linecap="round"></path>

  <rect x="13.25" y="22" width="17.5" height="12.5" rx="1.75" fill="#1e3a5f"></rect>
  <rect x="13.25" y="22" width="17.5" height="12.5" rx="1.75" fill="none" stroke="#334155" stroke-width="0.5"></rect>

  <circle cx="22" cy="27.25" r="1.75" fill="#3b82f6"></circle>
  <rect x="21.19" y="27.25" width="1.625" height="3.375" rx="0.5" fill="#3b82f6"></rect>
  <circle cx="22" cy="27.25" r="0.81" fill="#1e3a5f"></circle>


  <text x="44" y="22" font-size="21" font-weight="400" dominant-baseline="middle" letter-spacing="-0.4" fill="#94a3b8">Iron</text>
  <text x="83" y="22" font-size="21" font-weight="700" dominant-baseline="middle" letter-spacing="-0.4" fill="#f1f5f9">Stock</text>
</svg>
